HIERARCHY
ROOT Hips
{
	OFFSET -183.429703 89.960052 22.660780
	CHANNELS 6 Xposition Yposition Zposition Zrotation Yrotation Xrotation 
	JOINT RightUpLeg
	{
		OFFSET 0.103454 1.857828 10.548502
		CHANNELS 3 Xrotation Yrotation Zrotation
		JOINT RightLeg
		{
			OFFSET 43.500000 -0.000023 -0.000008
			CHANNELS 3 Xrotation Yrotation Zrotation
			JOINT RightFoot
			{
				OFFSET 42.372192 0.000008 0.000008
				CHANNELS 3 Xrotation Yrotation Zrotation
				JOINT RightToe
				{
					OFFSET 17.299997 -0.000001 0.000000
					CHANNELS 3 Xrotation Yrotation Zrotation
					End Site
					{
						OFFSET 0.000000 0.000000 0.000000
					}
				}
			}
		}
	}
	JOINT LeftUpLeg
	{
		OFFSET 0.103459 1.857828 -10.548505
		CHANNELS 3 Xrotation Yrotation Zrotation
		JOINT LeftLeg
		{
			OFFSET 43.500046 -0.000027 0.000015
			CHANNELS 3 Xrotation Yrotation Zrotation
			JOINT LeftFoot
			{
				OFFSET 42.372261 -0.000008 0.000019
				CHANNELS 3 Xrotation Yrotation Zrotation
				JOINT LeftToe
				{
					OFFSET 17.299992 -0.000006 -0.000002
					CHANNELS 3 Xrotation Yrotation Zrotation
					End Site
					{
						OFFSET 0.000000 0.000000 0.000000
					}
				}
			}
		}
	}
	JOINT Spine
	{
		OFFSET 6.901967 -2.603729 0.000006
		CHANNELS 3 Xrotation Yrotation Zrotation
		JOINT Spine1
		{
			OFFSET 12.588098 -0.000001 -0.000005
			CHANNELS 3 Xrotation Yrotation Zrotation
			JOINT Spine2
			{
				OFFSET 12.343207 0.000001 -0.000003
				CHANNELS 3 Xrotation Yrotation Zrotation
				JOINT Neck
				{
					OFFSET 25.832897 -0.000006 -0.000001
					CHANNELS 3 Xrotation Yrotation Zrotation
					JOINT Head
					{
						OFFSET 11.766602 0.000010 0.000005
						CHANNELS 3 Xrotation Yrotation Zrotation
						End Site
						{
							OFFSET 0.000000 0.000000 0.000000
						}
					}
				}
				JOINT RightShoulder
				{
					OFFSET 19.745901 -1.480368 6.000114
					CHANNELS 3 Xrotation Yrotation Zrotation
					JOINT RightArm
					{
						OFFSET 11.284125 -0.000009 -0.000026
						CHANNELS 3 Xrotation Yrotation Zrotation
						JOINT RightForeArm
						{
							OFFSET 33.000046 0.000005 0.000037
							CHANNELS 3 Xrotation Yrotation Zrotation
							JOINT RightHand
							{
								OFFSET 25.200003 0.000016 -0.000001
								CHANNELS 3 Xrotation Yrotation Zrotation
								End Site
								{
									OFFSET 0.000000 0.000000 0.000000
								}
							}
						}
					}
				}
				JOINT LeftShoulder
				{
					OFFSET 19.746088 -1.480377 -6.000074
					CHANNELS 3 Xrotation Yrotation Zrotation
					JOINT LeftArm
					{
						OFFSET 11.284132 -0.000015 -0.000021
						CHANNELS 3 Xrotation Yrotation Zrotation
						JOINT LeftForeArm
						{
							OFFSET 33.000107 0.000015 0.000018
							CHANNELS 3 Xrotation Yrotation Zrotation
							JOINT LeftHand
							{
								OFFSET 25.199774 0.000138 0.000420
								CHANNELS 3 Xrotation Yrotation Zrotation
								End Site
								{
									OFFSET 0.000000 0.000000 0.000000
								}
							}
						}
					}
				}
			}
		}
	}
}
MOTION
Frames: 15
Frame Time: 0.033333
-123.171402 89.897018 -68.421494 87.671728 -2.879054 -155.502808 163.999522 4.597000 174.783421 -24.348699 1.805572 -9.985384 84.135390 6.251934 -3.069139 21.454558 0.003101 0.000016 157.971470 11.665298 -174.346439 -72.104005 -1.437077 -5.622302 74.202875 6.428096 7.669353 21.454560 -0.003095 0.000001 6.926405 -1.339412 0.674050 3.825676 -2.700034 1.304345 3.507274 -2.692252 1.320631 3.927224 -11.333190 3.154514 -20.922480 7.867301 -2.018273 -158.907998 -77.438615 -22.965138 6.113467 59.582752 20.645971 -35.085210 -11.783210 1.155329 7.142349 -1.290077 9.209164 -142.102536 86.031922 39.763787 -7.716131 -68.713964 -43.441513 -28.205758 13.050757 -1.071089 13.186507 -2.324041 4.894148 
-121.309898 90.224007 -69.375923 87.715769 -2.155363 -156.148698 165.698108 4.039094 174.875082 -23.395018 1.918087 -10.250645 85.102272 6.350900 -3.513846 21.454560 0.003099 0.000017 154.559080 11.348404 -173.489045 -72.780699 -1.612262 -1.927843 74.934463 3.980684 8.527005 21.454553 -0.003091 -0.000001 6.855070 -1.191376 0.474129 3.688554 -2.397000 0.910733 3.370201 -2.391593 0.925197 4.008321 -10.829470 2.868308 -20.714343 7.493155 -2.045561 -161.825008 -77.904031 -19.983783 4.098578 60.462774 19.920660 -35.704469 -12.237542 1.199183 7.093065 -1.950498 9.132993 -141.045373 85.514064 40.848978 -4.323458 -68.762636 -46.538040 -26.929129 11.985917 -0.980306 13.524032 -3.073750 4.603653 
-119.419701 90.505493 -70.242332 87.560600 -1.288600 -156.856701 167.170000 3.383407 174.404782 -22.406051 2.253001 -10.233573 86.016506 6.243638 -4.031852 21.454557 0.003117 0.000020 151.216372 10.846204 -172.455515 -71.006182 -1.827019 0.658437 75.184038 2.047409 8.324107 21.454555 -0.003093 0.000000 6.738495 -1.010222 0.296282 3.459726 -2.028657 0.562746 3.141408 -2.025373 0.574994 3.710898 -10.075239 2.732261 -20.139965 7.167849 -1.902143 -163.635896 -78.512485 -18.132588 2.623562 61.631891 19.314595 -36.988664 -12.671348 1.257851 6.919539 -2.783772 9.308144 -140.569746 85.260459 41.338685 -0.402310 -68.489415 -50.242465 -26.391755 11.772190 -0.957573 13.845744 -3.807915 4.358903 
-117.501198 90.548332 -71.041924 87.213750 -0.782914 -157.537603 168.278171 3.034304 173.624228 -22.082008 2.597735 -10.086713 87.207760 6.046517 -4.623199 21.454560 0.003125 0.000020 148.610341 10.486299 -171.704754 -66.944098 -1.944660 2.379313 75.429891 0.845018 8.508304 21.454553 -0.003092 -0.000000 6.640327 -0.900312 0.104077 3.266780 -1.803100 0.183135 2.948500 -1.802102 0.194020 3.055145 -9.027565 2.793000 -19.372761 6.742209 -1.477517 -164.613515 -78.990871 -17.133811 1.573177 62.371095 19.227983 -39.087267 -13.008404 1.331963 6.400830 -3.266198 9.832915 -139.729141 84.991363 42.196939 3.198624 -67.825151 -53.560202 -26.661970 12.222836 -0.991113 14.013040 -4.606160 3.822346 
-115.475800 90.471458 -71.793640 86.880163 -0.429741 -157.981989 169.329924 2.737902 172.941387 -22.116431 2.834719 -9.854839 88.606186 5.814616 -5.215794 21.454557 0.003113 0.000018 146.933652 10.073394 -171.322700 -60.664408 -1.926111 3.109493 75.109794 0.303398 8.406322 21.454545 -0.003091 -0.000000 6.581197 -0.824673 -0.116105 3.151698 -1.645883 -0.254276 2.833478 -1.647518 -0.244329 2.164602 -7.731492 2.951877 -18.500505 6.188047 -0.859903 -165.842799 -79.364291 -15.881028 0.946106 62.432239 19.697041 -41.829243 -13.271842 1.421712 5.577477 -3.308179 10.688362 -138.131615 84.506809 43.828334 5.700942 -67.037105 -55.350098 -27.394673 12.820535 -1.042031 14.012866 -4.963777 3.397052 
-113.317200 90.246964 -72.509621 86.536168 -0.355102 -158.149711 170.388085 2.658905 172.363348 -22.452910 3.049514 -9.563795 90.198754 5.562424 -5.845226 21.454560 0.003107 0.000017 146.143372 9.815309 -171.372697 -52.651155 -1.684299 3.046455 74.775477 0.169509 7.789907 21.454548 -0.003092 0.000000 6.554983 -0.820058 -0.360968 3.102711 -1.630266 -0.743484 2.784507 -1.634862 -0.733629 1.247653 -6.437364 3.081407 -17.672213 5.660923 -0.278599 -167.861830 -79.757307 -13.826664 0.708372 61.967882 20.318182 -44.788880 -13.392661 1.513303 4.639328 -3.166790 11.744751 -136.401364 83.913628 45.601024 7.121785 -66.497595 -55.598245 -28.126786 13.235436 -1.081554 13.929612 -4.531873 3.808848 
-111.064697 90.110924 -73.215279 86.311072 -0.159351 -158.198000 171.828558 2.478103 171.961569 -22.213580 3.292043 -9.310386 91.475235 5.346132 -6.488158 21.454560 0.003110 0.000017 146.782227 9.209705 -171.364488 -42.237682 -1.478155 2.477562 73.540298 0.435953 7.123259 21.454550 -0.003092 -0.000000 6.541322 -0.798124 -0.576456 3.078200 -1.580856 -1.173679 2.760037 -1.588051 -1.164112 0.574602 -5.463176 3.104231 -17.189570 5.332517 0.057861 -170.197495 -80.163089 -11.453303 0.543413 61.287246 20.581011 -47.484124 -13.334989 1.590303 3.796201 -2.996701 12.682588 -135.103191 83.435890 46.934362 7.763297 -66.433090 -54.955378 -28.623402 13.499661 -1.107499 13.836318 -3.409654 5.002843 
-108.698303 90.006569 -73.911591 86.135242 0.009801 -158.236495 173.623873 2.305693 171.738236 -21.469614 3.460752 -9.182670 92.426974 5.214656 -7.165077 21.454558 0.003101 0.000017 148.600628 8.327501 -171.544067 -29.927328 -1.392605 1.372516 71.361372 0.766121 5.342774 21.454551 -0.003092 0.000000 6.514713 -0.778723 -0.733291 3.026792 -1.538307 -1.486459 2.708686 -1.547390 -1.477148 0.386743 -5.004860 2.986231 -17.259178 5.271932 0.044251 -172.054815 -80.471103 -9.568153 0.265937 60.578471 20.405120 -49.538139 -13.196749 1.645535 3.210211 -2.735704 13.231811 -134.299756 83.199197 47.757253 8.208713 -66.726010 -54.386085 -28.965077 13.782241 -1.131936 13.772769 -2.051838 6.159666 
-106.206398 89.878273 -74.569847 85.977663 0.109613 -158.358701 175.617291 2.112505 171.528767 -20.523720 3.526160 -9.147784 93.123660 5.128182 -7.996675 21.454558 0.003105 0.000017 150.865533 7.233705 -172.529677 -18.060480 -1.706134 0.337397 69.685770 1.890164 6.199738 21.454551 -0.003090 0.000001 6.453189 -0.769953 -0.797293 2.904490 -1.519982 -1.613435 2.586398 -1.529838 -1.604227 0.699033 -5.019006 2.712761 -17.719990 5.424949 -0.304062 -172.895734 -80.629946 -8.715496 -0.259964 59.957149 19.835592 -50.714117 -13.085623 1.676069 2.952009 -2.378528 13.402977 -133.711991 83.166856 48.351923 8.729471 -67.165451 -54.335135 -29.303574 14.103436 -1.158864 13.722848 -1.043384 6.662874 
-103.593597 89.559593 -75.160957 85.867438 0.021873 -158.607101 177.386365 1.936797 170.927997 -20.385475 3.657968 -9.016942 94.036740 4.973895 -9.089067 21.454560 0.003116 0.000017 152.108012 6.261306 -173.813343 -11.287544 -1.908689 -0.343984 70.868253 2.216585 5.922168 21.454557 -0.003090 0.000000 6.379142 -0.790491 -0.763991 2.756253 -1.562895 -1.546347 2.438157 -1.572337 -1.536885 1.263155 -5.288883 2.349959 -18.199577 5.691749 -0.831280 -172.505389 -80.637814 -9.111800 -1.077308 59.499041 18.849475 -50.970321 -13.044578 1.681692 2.970564 -2.086456 13.421819 -133.437321 83.237863 48.625418 8.983217 -67.543146 -54.507778 -29.640490 14.347741 -1.180920 13.635831 -0.768356 6.582174 
-100.957901 89.239891 -75.606491 86.063184 0.093375 -159.006107 178.758468 1.213105 169.864906 -21.519064 3.842016 -8.487383 94.785199 4.525869 -10.431914 21.454558 0.003103 0.000018 152.158050 5.319396 -173.814408 -12.637961 -1.740937 -0.867280 71.618830 2.751241 6.521810 21.454553 -0.003087 0.000002 6.352761 -0.750439 -0.647424 2.701412 -1.485831 -1.311926 2.383291 -1.493862 -1.302932 1.758267 -5.577551 2.053257 -18.487635 5.976911 -1.294959 -171.020014 -80.443093 -10.618957 -2.115454 59.286302 17.354519 -50.450738 -13.112998 1.669328 3.101592 -2.094597 13.374790 -133.770102 83.328233 48.284803 7.935257 -67.815200 -54.097584 -29.806037 14.440712 -1.190054 13.515315 -1.134295 6.476596 
-98.140694 88.930161 -75.895729 86.764685 0.405285 -159.177900 -179.992082 -0.253102 168.753853 -23.803774 4.010781 -7.735023 95.245936 3.887463 -12.011221 21.454558 0.003106 0.000018 152.102753 4.118898 -173.124941 -16.465310 -1.639502 -2.435925 67.745095 1.953387 0.544511 21.454557 -0.003095 -0.000001 6.420131 -0.602545 -0.543538 2.833294 -1.191821 -1.101432 2.515183 -1.198585 -1.094216 2.072870 -5.702463 1.922698 -18.693898 6.137422 -1.511414 -169.600496 -80.008371 -12.059541 -2.867213 59.331804 15.696239 -49.283882 -13.349869 1.647617 3.232202 -2.611782 12.980541 -134.608999 83.327352 47.438423 5.238209 -67.903938 -52.794039 -29.689033 14.357633 -1.182483 13.457907 -1.597390 6.611468 
-95.161301 88.758408 -76.026772 87.855473 1.046821 -158.875200 -179.192376 -2.543195 168.253241 -27.355896 3.988964 -7.110315 94.728133 3.209009 -13.829530 21.454557 0.003110 0.000017 152.279942 2.951600 -173.863749 -20.952425 -1.402244 -1.728083 68.419972 1.445703 0.567982 21.454557 -0.003092 -0.000001 6.546350 -0.336755 -0.489081 3.082717 -0.660540 -0.986817 2.764658 -0.666624 -0.982808 2.355468 -5.553911 1.904948 -19.036413 6.044816 -1.469511 -169.746224 -79.494571 -11.910189 -2.980562 59.720708 14.293586 -47.437716 -13.740292 1.615733 3.408318 -3.809549 11.738751 -135.536279 83.139931 46.512253 1.301811 -67.781165 -50.648858 -29.344446 14.075239 -1.157827 13.555363 -1.626314 6.742349 
-92.105042 88.767220 -76.132683 88.822806 1.449582 -158.183397 179.842870 -4.835298 168.745014 -33.585860 4.304871 -6.392344 91.169249 2.057898 -15.535363 21.454560 0.003106 0.000017 152.870234 2.299393 -175.396444 -25.273075 -0.141356 -0.251777 71.567576 0.114654 -0.121948 21.454551 -0.003088 -0.000001 6.653550 -0.110883 -0.467439 3.295122 -0.208568 -0.937790 2.977072 -0.214362 -0.936516 2.812545 -5.159726 1.902366 -19.555728 5.728009 -1.277422 -171.793615 -79.222381 -9.826150 -2.397918 60.552503 13.575598 -44.951702 -14.113770 1.565617 3.851255 -5.674566 9.423906 -136.573799 82.902398 45.476728 -2.778697 -67.503921 -48.251024 -29.043921 13.762852 -1.132144 13.774045 -1.291337 6.478369 
-89.192833 88.736511 -76.265633 89.522921 1.813639 -157.242498 177.164534 -6.967897 170.356639 -41.678381 4.539113 -5.771308 85.958532 0.848614 -15.917051 21.454558 0.003116 0.000019 153.820532 2.072797 -174.845425 -28.468112 0.857232 0.007690 74.917490 -0.257515 -0.708104 21.454550 -0.003092 0.000001 6.707997 0.093836 -0.434714 3.402415 0.200273 -0.866524 3.084367 0.194898 -0.867719 3.408754 -4.715767 1.868119 -20.003297 5.401144 -1.094061 -174.802504 -79.359278 -6.766065 -1.342526 61.678329 13.961412 -42.220958 -14.257915 1.497172 4.756472 -7.633063 6.659809 -137.843012 82.858500 44.197061 -6.099919 -67.090885 -46.393899 -29.189616 13.771504 -1.135402 13.945362 -1.135908 5.803361 
